<svg xmlns="http://www.w3.org/2000/svg" width="724" height="152" viewBox="0 0 724 152"><defs><style>.a{fill:#6dcbc9;}.b{fill:#48545e;}.c,.d{fill:#fff;}.d{stroke:#fff;stroke-width:0.5px;font-size:37px;font-family:AGaramondPro-Regular, Adobe Garamond Pro;letter-spacing:0.014em;}</style></defs><g transform="translate(22 -259)"><path class="a" d="M0,0H424.033V152H0Z" transform="translate(277.967 259)"/><rect class="b" width="293" height="152" transform="translate(-22 259)"/><g transform="translate(-128 -145)"><g transform="translate(434.092 481.039)"><path class="c" d="M7.056-2.436V-27.888h4.368c8.316,0,11.55,3.78,11.55,12.81,0,8.61-3.7,12.642-11.676,12.642ZM4.242,0h7.392c9.324,0,14.28-5.376,14.28-15.582,0-9.786-4.788-14.742-14.28-14.742H4.242ZM44.016-6.342c-1.554,3.234-3.36,4.62-6.174,4.62-4.158,0-6.468-3.234-6.51-9.324h14.49v-.714c0-6.972-2.94-10.626-8.232-10.626-5.25,0-8.862,4.284-8.862,11.55,0,6.888,3.486,11.214,8.946,11.214,3.864,0,6.342-1.722,8.274-5.67Zm-.63-6.594H31.332c.42-4.7,2.856-7.308,6.3-7.308S43.26-17.682,43.386-12.936ZM62.664-6.342c-1.512,3.192-3.15,4.62-5.88,4.62-3.99,0-6.3-3.276-6.3-9.324,0-5.922,2.394-9.2,6.132-9.2,2.646,0,4.41,1.47,5.586,4.62l2.268-.882c-1.512-3.948-4.116-5.88-7.938-5.88-5.124,0-8.694,4.284-8.694,11.55,0,6.93,3.486,11.214,8.946,11.214,3.654,0,5.964-1.68,7.854-5.628ZM68.712,0h2.562V-21.966H68.712Zm-.294-26.628h3.15v-3.7h-3.15ZM77.112-5.5,75.18-3.948A9.706,9.706,0,0,0,83.454.378c4.536,0,7.476-2.646,7.476-6.3,0-3.486-2.226-4.83-6.594-6.468-3.654-1.386-5.8-1.932-5.8-4.284,0-2.142,1.554-3.612,3.948-3.612,2.436,0,4.242,1.05,5.922,3.276l1.848-1.344a8.909,8.909,0,0,0-7.308-4.032c-4.368,0-7.1,2.478-7.1,5.838s2.31,4.62,6.762,6.258c3.612,1.344,5.67,1.932,5.67,4.578,0,2.31-1.806,4.032-4.536,4.032C81.186-1.68,79-2.982,77.112-5.5ZM95.256,0h2.562V-21.966H95.256Zm-.294-26.628h3.15v-3.7h-3.15ZM102.228-11c0,7.14,3.654,11.382,8.988,11.382S120.2-3.864,120.2-11s-3.654-11.34-8.988-11.34S102.228-18.144,102.228-11Zm2.6,0c0-5.964,2.478-9.2,6.384-9.2s6.342,3.234,6.342,9.2-2.436,9.24-6.342,9.24S104.832-5.04,104.832-11ZM124.278,0h2.6V-16c2.352-2.73,4.662-4.074,6.846-4.074,3.36,0,4.116,1.848,4.116,5.712V0h2.562V-15.288q0-7.056-5.922-7.056c-2.436,0-5,1.26-7.6,3.822v-3.444h-2.6Zm31.206,0h2.73l3.024-9.954h11.088L175.35,0h2.9l-9.492-30.324h-3.78Zm6.51-12.39,4.83-16,4.788,16ZM182.112,0h2.562V-21.966h-2.562Zm-.294-26.628h3.15v-3.7h-3.15ZM203.742-2.856,204.414,0h2.1a19.038,19.038,0,0,1-.168-3.192V-30.324h-2.6V-19.11h-.21a8.707,8.707,0,0,0-6.636-3.234c-4.494,0-7.812,4.074-7.812,11.34S192.4.378,196.9.378a8.707,8.707,0,0,0,6.636-3.234Zm0-3.024c-2.1,2.772-4.074,4.116-6.426,4.116-3.528,0-5.628-3.234-5.628-9.24,0-6.048,2.142-9.282,5.628-9.282,2.226,0,4.326,1.386,6.426,4.158Z" transform="translate(-0.092 37.961)"/></g><g transform="translate(433 446)"><path class="c" d="M17.955,0h3.4V-12.915H11.865v3.99h4.76C16.2-5.67,14.28-3.78,11.585-3.78,8.155-3.78,6.16-6.86,6.16-12.7c0-5.985,1.925-9.065,5.565-9.065,2.2,0,3.71,1.155,4.725,3.535l4.34-1.085c-1.26-4.165-4.41-6.44-8.96-6.44C5.25-25.76,1.3-21.1,1.3-12.985c0,8.5,3.71,13.4,9.7,13.4a7.807,7.807,0,0,0,6.72-3.08Zm21.21-3.605L35.98-5.565c-1.015,1.61-2.1,2.345-3.745,2.345-2.555,0-3.85-1.75-3.885-5.215H39.34c0-.315.035-.63.035-.945,0-5.95-2.835-9.31-7.595-9.31s-7.7,3.465-7.7,9.555c0,6.02,2.905,9.485,7.77,9.485C35.245.35,37.765-1.015,39.165-3.605ZM28.42-11.55c.175-2.485,1.4-3.885,3.36-3.885,2.065,0,3.325,1.435,3.325,3.885ZM42.315,0H46.62V-13.125a6.135,6.135,0,0,1,4.06-2.03c1.575,0,2.1,1.015,2.1,3.255V0h4.34V-12.74c0-3.955-1.75-5.95-5.145-5.95-2.03,0-3.64.875-5.67,2.52v-2.17h-3.99Zm32.76-3.605L71.89-5.565c-1.015,1.61-2.1,2.345-3.745,2.345-2.555,0-3.85-1.75-3.885-5.215H75.25c0-.315.035-.63.035-.945,0-5.95-2.835-9.31-7.595-9.31s-7.7,3.465-7.7,9.555c0,6.02,2.9,9.485,7.77,9.485C71.155.35,73.675-1.015,75.075-3.605ZM64.33-11.55c.175-2.485,1.4-3.885,3.36-3.885,2.065,0,3.325,1.435,3.325,3.885ZM83.125-5.5V-14.77h3.57v-3.57h-3.57v-5.88h-4.34v5.88H76.4v3.57h2.38V-3.92C78.785-.945,80.08.385,83.09.385A18.087,18.087,0,0,0,86.695.07V-3.5a12.372,12.372,0,0,1-1.785.14C83.335-3.36,83.125-3.955,83.125-5.5ZM89.25,0h4.34V-18.34H89.25Zm0-21.35h4.34v-4.095H89.25ZM108.29-6.09c-.91,1.89-2.135,2.765-3.85,2.765-2.415,0-3.57-1.82-3.57-5.6,0-4.2,1.19-6.16,3.85-6.16,1.54,0,2.485.91,3.115,2.765l3.64-1.575a6.945,6.945,0,0,0-7.035-4.76c-4.865,0-7.91,3.535-7.91,9.485,0,6.265,2.73,9.52,7.91,9.52a7.242,7.242,0,0,0,7.21-4.655ZM129.85,0h4.83V-21.245h6.685v-4.2h-18.2v4.2h6.685Zm27.965-3.605-3.185-1.96c-1.015,1.61-2.1,2.345-3.745,2.345-2.555,0-3.85-1.75-3.885-5.215h10.99c0-.315.035-.63.035-.945,0-5.95-2.835-9.31-7.6-9.31s-7.7,3.465-7.7,9.555c0,6.02,2.9,9.485,7.77,9.485C153.895.35,156.415-1.015,157.815-3.605ZM147.07-11.55c.175-2.485,1.4-3.885,3.36-3.885,2.065,0,3.325,1.435,3.325,3.885Zm12.39,8.225a8.332,8.332,0,0,0,7.175,3.71c3.885,0,6.4-2.24,6.4-5.635,0-3.185-1.68-4.445-5.04-5.74-2.59-1.015-4.1-1.33-4.1-2.555,0-1.085.84-1.82,2.345-1.82a4.931,4.931,0,0,1,3.57,1.855l2.73-2.38a7.788,7.788,0,0,0-6.2-2.8c-3.815,0-6.3,2.31-6.3,5.355s1.96,4.235,5.74,5.67c2.065.77,3.36,1.12,3.36,2.625,0,1.225-.945,2.03-2.555,2.03-1.505,0-2.835-.875-4.2-2.625ZM180.915-5.5V-14.77h3.57v-3.57h-3.57v-5.88h-4.34v5.88H174.2v3.57h2.38V-3.92c0,2.975,1.295,4.305,4.3,4.305a18.087,18.087,0,0,0,3.6-.315V-3.5a12.372,12.372,0,0,1-1.785.14C181.125-3.36,180.915-3.955,180.915-5.5ZM187.04,0h4.34V-18.34h-4.34Zm0-21.35h4.34v-4.095h-4.34ZM195.615,0h4.305V-13.125a6.135,6.135,0,0,1,4.06-2.03c1.575,0,2.1,1.015,2.1,3.255V0h4.34V-12.74c0-3.955-1.75-5.95-5.145-5.95-2.03,0-3.64.875-5.67,2.52v-2.17h-3.99Zm20.4-1.3c-2.17.7-3.185,1.645-3.185,3.36,0,2.975,2.625,4.585,7.77,4.585,5.635,0,8.61-2.065,8.61-5.67,0-3.5-1.995-4.41-6.72-4.76-3.15-.245-4.83-.14-4.83-1.365,0-.49.385-.91,1.19-1.225a8.307,8.307,0,0,0,1.995.21c4.27,0,6.86-2.31,6.86-5.845a5.651,5.651,0,0,0-.84-3.29,2.688,2.688,0,0,1,1.61-.455,8.12,8.12,0,0,1,.84.07V-18.9a3.8,3.8,0,0,0-.63-.035,4.058,4.058,0,0,0-3.36,1.75,7.253,7.253,0,0,0-4.585-1.54c-4.165,0-6.965,2.625-6.965,6.37a5.271,5.271,0,0,0,2.555,4.795c-1.785.91-2.73,2.17-2.73,3.465C213.6-2.835,214.375-2.1,216.02-1.3Zm1.855-11.025a2.816,2.816,0,0,1,2.87-3.08,2.885,2.885,0,0,1,3.08,3.01,2.783,2.783,0,0,1-2.975,2.94A2.679,2.679,0,0,1,217.875-12.32ZM218.82-.385l4.025.21c1.645.07,2.45.455,2.45,1.47,0,1.3-1.715,2.275-4.76,2.275-2.24,0-3.57-.84-3.57-2.03C216.965.77,217.56.21,218.82-.385Z" transform="translate(0 32)"/></g></g><g transform="translate(-34.246 -3.206)"><text class="d" transform="translate(276.964 375.08)"><tspan x="-215.451" y="0">Cancer Center</tspan></text><text class="d" transform="translate(276.456 336.724)"><tspan x="-199.615" y="0">Mass General</tspan></text></g></g></svg>