<svg xmlns="http://www.w3.org/2000/svg" width="724" height="152" viewBox="0 0 724 152"><defs><style>.a{fill:#6dcbc9;}.b{fill:#48545e;}.c,.d{fill:#fff;}.d,.e{stroke:#fff;}.d{stroke-width:0.5px;}.e{fill:none;}</style></defs><g transform="translate(0 -176)"><path class="a" d="M0,0H424.033V152H0Z" transform="translate(299.967 176)"/><rect class="b" width="293" height="152" transform="translate(0 176)"/><g transform="translate(-102 -228)"><g transform="translate(434.092 481.039)"><path class="c" d="M4.158,0h7.476c10.122,0,15.2-5.628,15.2-15.54,0-10-4.956-15.54-15.2-15.54H4.158Zm2.1-1.932V-29.148h5.754c7.98,0,12.726,4.326,12.726,13.608,0,9.408-4.7,13.608-12.642,13.608ZM39.774.462c4.284,0,6.888-2.1,8.694-5.418L47-5.88C45.318-2.94,43.344-1.3,39.9-1.3c-4.074,0-7.392-3.612-7.392-9.618H48.594v-.294c0-6.93-3.528-11.3-8.736-11.3-4.7,0-9.366,3.822-9.366,11.466C30.492-3.78,34.818.462,39.774.462ZM32.55-12.6c.546-5.46,3.822-8.148,7.266-8.148,4.242,0,6.384,3.612,6.678,8.148ZM61.53.462c4.2,0,6.678-2.226,8.526-6.048l-1.6-.8c-1.68,3.36-3.444,5.082-6.8,5.082-4.032,0-7.35-3.57-7.35-9.744,0-7.182,4.032-9.7,7.434-9.7s5.208,1.89,6.552,5.04l1.722-.924c-1.386-3.15-3.738-5.88-8.19-5.88-4.956,0-9.534,3.78-9.534,11.508C52.29-3.99,56.49.462,61.53.462Zm13.44-28.14h2.184V-30.24H74.97ZM75.054,0H77.07V-22.05H75.054ZM90.3.378c4.956,0,8.358-2.352,8.358-6.132,0-3.948-2.184-5.418-8.4-6.972-4.326-1.05-5.586-2.058-5.586-4.368,0-1.848,1.554-3.654,5.208-3.654a8.189,8.189,0,0,1,6.51,2.856l1.344-1.386a10.158,10.158,0,0,0-7.812-3.234c-4.746,0-7.266,2.688-7.266,5.5,0,3.4,1.848,4.872,7.434,6.258,4.956,1.176,6.552,2.31,6.552,5s-2.142,4.368-6.3,4.368A8.08,8.08,0,0,1,83.5-4.83L82.026-3.7A9.688,9.688,0,0,0,90.3.378Zm13.566-28.056h2.184V-30.24h-2.184ZM103.95,0h2.016V-22.05H103.95Zm16.926.462c5.418,0,9.7-4.452,9.7-11.466,0-7.1-4.284-11.508-9.7-11.508-5.46,0-9.7,4.41-9.7,11.508C111.174-3.99,115.458.462,120.876.462Zm0-1.764c-5.04,0-7.686-4.578-7.686-9.744,0-5.5,2.94-9.7,7.686-9.7,5,0,7.686,4.578,7.686,9.7C128.562-5.46,125.622-1.3,120.876-1.3ZM135.534,0h2.016V-16.548c2.73-2.6,5.292-4.2,8.358-4.2,3.36,0,4.83,1.638,4.83,5V0h2.016V-16c0-3.99-2.1-6.51-6.678-6.51-3.234,0-6.09,1.806-8.526,4.116V-22.05h-2.016ZM170.31-12.306l5.712-16.548h.084l5.754,16.548ZM163.884,0h2.142l3.612-10.416h12.894L186.144,0h2.226l-11-31.206h-2.478Zm29.022-27.678h2.184V-30.24h-2.184ZM192.99,0h2.016V-22.05H192.99Zm16.548-1.386c-3.864,0-7.266-2.982-7.266-9.66,0-6.762,3.318-9.7,7.182-9.7,2.856,0,5.082,1.428,7.56,3.948V-5.334C214.536-2.814,212.52-1.386,209.538-1.386ZM209.5.378c3.318,0,5.628-1.722,7.518-3.7a12.261,12.261,0,0,0,.5,3.318H219.7c-.5-1.134-.672-2.772-.672-5.46V-31.08h-2.016v12.264a10.3,10.3,0,0,0-7.434-3.7c-5.124,0-9.324,3.78-9.324,11.508S204.414.378,209.5.378Z" transform="translate(-0.092 39.961)"/></g><g transform="translate(433 445)"><path class="c" d="M12.376.476a7.252,7.252,0,0,0,6.868-4.114h.068V0h3.5V-12.444H13.668V-9.01h5.066c-.272,3.706-2.55,5.678-5.882,5.678-3.57,0-6.936-2.414-6.936-9.452,0-7.072,3.774-8.908,6.766-8.908s4.726,1.258,5.848,5.032l3.944-1.054c-1.5-5.712-5-7.922-9.758-7.922-6.7,0-11.084,4.9-11.084,12.954C1.632-5,5.168.476,12.376.476ZM35.02.374A9.744,9.744,0,0,0,42.6-2.89l-2.21-2.176a6.544,6.544,0,0,1-5.066,2.108c-2.652,0-4.658-1.428-4.828-4.692H42.84v-.986c0-7.344-3.876-9.758-7.922-9.758-3.74,0-8.6,2.516-8.6,9.384C26.316-2.38,30.5.374,35.02.374ZM30.566-10.778c.408-3.06,2.278-4.216,4.318-4.216,2.516,0,3.876,1.462,4.114,4.216ZM50.388,0V-12.58a7.171,7.171,0,0,1,4.9-2.346c1.9,0,2.72,1.02,2.72,2.992V0h4.182V-13.124c0-3.57-2.04-5.27-5.338-5.27a8.521,8.521,0,0,0-6.46,3.23v-2.89H46.206V0Zm23.63.374A9.744,9.744,0,0,0,81.6-2.89L79.39-5.066a6.544,6.544,0,0,1-5.066,2.108c-2.652,0-4.658-1.428-4.828-4.692H81.838v-.986c0-7.344-3.876-9.758-7.922-9.758-3.74,0-8.6,2.516-8.6,9.384C65.314-2.38,69.5.374,74.018.374ZM69.564-10.778c.408-3.06,2.278-4.216,4.318-4.216,2.516,0,3.876,1.462,4.114,4.216ZM92.174.238A20.626,20.626,0,0,0,95.234,0V-3.3a6.808,6.808,0,0,1-1.8.238c-2.074,0-2.652-.782-2.652-2.72v-8.942h4.658v-3.332H90.78v-6.29H86.6v6.29H83.47v3.332H86.6v10C86.6-1.462,87.584.238,92.174.238Zm10.778-21.42V-24.82H98.668v3.638ZM102.918,0V-18.054H98.7V0Zm11.934.374c4.352,0,6.494-2.414,7.786-5.3L119.17-6.188c-.986,2.55-2.312,3.128-4.216,3.128-2.754,0-4.318-2.108-4.318-5.95,0-4.318,2.006-5.882,4.386-5.882a3.947,3.947,0,0,1,4.012,3.026l3.536-1.258c-1.088-2.788-2.992-5.27-7.48-5.27-4.012,0-8.67,2.482-8.67,9.384C106.42-2.414,110.67.374,114.852.374ZM143.378,0V-21.216h7.752V-25.16H131.376v3.944h7.752V0Zm13.94.374A9.744,9.744,0,0,0,164.9-2.89l-2.21-2.176a6.544,6.544,0,0,1-5.066,2.108c-2.652,0-4.658-1.428-4.828-4.692h12.342v-.986c0-7.344-3.876-9.758-7.922-9.758-3.74,0-8.6,2.516-8.6,9.384C148.614-2.38,152.8.374,157.318.374Zm-4.454-11.152c.408-3.06,2.278-4.216,4.318-4.216,2.516,0,3.876,1.462,4.114,4.216ZM174.726.374c4.114,0,7.548-1.768,7.548-5.576,0-4.216-3.774-5-6.868-5.678-2.142-.476-3.944-.918-3.944-2.38,0-1.02.748-1.836,3.06-1.836a9.067,9.067,0,0,1,5.1,1.972l2.006-2.72a10.593,10.593,0,0,0-7.412-2.55c-3.978,0-6.7,2.142-6.7,5.3,0,4.182,3.706,5,6.8,5.712,2.176.51,4.012.952,4.012,2.414,0,1.5-1.36,2.074-3.6,2.074a8.9,8.9,0,0,1-5.678-2.142l-2.278,2.55A11.432,11.432,0,0,0,174.726.374Zm17.51-.136A20.626,20.626,0,0,0,195.3,0V-3.3a6.809,6.809,0,0,1-1.8.238c-2.074,0-2.652-.782-2.652-2.72v-8.942H195.5v-3.332h-4.658v-6.29H186.66v6.29h-3.128v3.332h3.128v10C186.66-1.462,187.646.238,192.236.238Zm10.778-21.42V-24.82H198.73v3.638ZM202.98,0V-18.054h-4.216V0Zm8.738,0V-12.58a7.171,7.171,0,0,1,4.9-2.346c1.9,0,2.72,1.02,2.72,2.992V0h4.182V-13.124c0-3.57-2.04-5.27-5.338-5.27a8.521,8.521,0,0,0-6.46,3.23v-2.89h-4.182V0Zm22.848-8.4c-2.312,0-3.706-1.19-3.706-3.4s1.36-3.468,3.672-3.468c2.38,0,3.672,1.224,3.672,3.468C238.2-9.588,236.844-8.4,234.566-8.4Zm-.1,15.4c5.576,0,9.316-1.8,9.316-5.508,0-3.162-2.108-4.59-7.446-4.93l-3.2-.2c-1.6-.136-2.074-.374-2.074-1.088,0-.476.374-.85.918-1.156a8.485,8.485,0,0,0,2.516.374c4.692,0,7.514-2.652,7.514-6.426a4.6,4.6,0,0,0-.646-2.448,10.8,10.8,0,0,1,3.162-.476v-3.4a9.261,9.261,0,0,0-4.488,1.768,8.146,8.146,0,0,0-5.542-1.9c-4.726,0-7.582,2.754-7.582,6.46a5.943,5.943,0,0,0,2.856,5.2c-1.36.816-2.448,1.938-2.448,3.3a2.367,2.367,0,0,0,1.394,2.21,4.052,4.052,0,0,0-2.958,3.808C225.76,5.2,228.242,7,234.464,7Zm.646-3.026c-3.672,0-5.508-.51-5.508-2.108a2.488,2.488,0,0,1,1.666-2.312,5.892,5.892,0,0,0,1.088.1l3.128.2c3.672.238,4.59.714,4.59,2.006S238.17,3.978,235.11,3.978Z" transform="translate(0 32)"/></g></g><path class="d" d="M-187.232-10.432a10.316,10.316,0,0,0,4.544,8.8A14.018,14.018,0,0,0-174.72.512a18.858,18.858,0,0,0,5.056-.736,6.444,6.444,0,0,1,1.12-.32,12.027,12.027,0,0,0,1.536-4.384.673.673,0,0,0-.832-.128A6.822,6.822,0,0,1-174.528-.48c-5.248,0-9.5-3.712-9.5-10.432,0-6.624,4.16-9.728,9.056-9.728,4.64,0,6.08,2.5,6.56,4.672a.675.675,0,0,0,.864-.064c-.256-1.952-.416-3.968-.448-4.7a2.414,2.414,0,0,1-.9-.128,24.692,24.692,0,0,0-5.664-.768,13.79,13.79,0,0,0-8.64,2.72A10.63,10.63,0,0,0-187.232-10.432Zm25.28,5.184c-2.048.736-2.656,1.472-2.656,2.72a2.994,2.994,0,0,0,.992,2.24,3.312,3.312,0,0,0,2.24.736,4.736,4.736,0,0,0,2.3-.8,4.913,4.913,0,0,1,1.248-.64c.192,0,.384.256.512.448a2.554,2.554,0,0,0,2.08.992A3.357,3.357,0,0,0-152.544-.96c0-.224-.1-.416-.224-.416-.1,0-.256.128-.416.224a1.839,1.839,0,0,1-.8.192c-1.248,0-1.536-1.312-1.472-2.784l.192-5.568c.1-2.4-1.024-3.744-3.328-3.744-2.336,0-5.952,2.272-5.952,3.936a.4.4,0,0,0,.448.448,3.443,3.443,0,0,0,1.824-.608c.256-.192.288-.576.32-1.088.064-.992,1.152-1.44,2.048-1.44,1.984,0,2.368,1.6,2.336,2.784l-.032,1.472c0,.48-.064.768-.544.928Zm-.192,2.336c0-1.248.928-1.728,2.816-2.368a6.039,6.039,0,0,1,1.312-.32c.192,0,.32.064.32.416L-157.76-3.3c-.032.672-.032,1.12-.416,1.5a3.619,3.619,0,0,1-1.952.8A1.929,1.929,0,0,1-162.144-2.912Zm13.12-.672c0,2.3-.032,2.624-1.216,2.784l-.672.1a.56.56,0,0,0,.064.8c.9-.064,1.856-.1,3.008-.1,1.12,0,2.048.032,2.912.1a.56.56,0,0,0,.064-.8l-.576-.1c-1.152-.192-1.216-.48-1.216-2.784v-4.9a2.7,2.7,0,0,1,.48-1.92,3.49,3.49,0,0,1,2.72-1.12c2.176,0,3.008,1.344,3.008,3.168v4.768c0,2.3-.032,2.592-1.216,2.784l-.608.1a.56.56,0,0,0,.064.8c.864-.064,1.824-.1,2.976-.1,1.12,0,2.048.032,3.008.1a.56.56,0,0,0,.064-.8l-.7-.1c-1.152-.16-1.216-.48-1.216-2.784v-5.5c0-2.144-1.088-3.968-3.744-3.968a8.773,8.773,0,0,0-4.48,1.632.336.336,0,0,1-.352-.352c0-.288,0-.768.064-1.5a.373.373,0,0,0-.352-.224,17.437,17.437,0,0,1-3.2,1.568.438.438,0,0,0-.032.576l.288.192c.864.576.864.736.864,1.984Zm23.2-9.472c-5.312,0-7.744,3.68-7.744,7.136a6.371,6.371,0,0,0,1.856,4.736A6.2,6.2,0,0,0-127.328.448a5.831,5.831,0,0,0,5.344-3.264.5.5,0,0,0-.576-.448,3.9,3.9,0,0,1-3.552,1.92,5.258,5.258,0,0,1-5.152-5.472c0-3.392,2.176-5.152,4.416-5.152a4.365,4.365,0,0,1,3.2,1.7.559.559,0,0,0,.448.224c.384,0,.7-.608.7-1.184a1.814,1.814,0,0,0-.48-1.28A7.981,7.981,0,0,0-125.824-13.056ZM-111.2-8.192c1.344,0,1.792-.032,1.888-.224a1.978,1.978,0,0,0,.128-.832c0-1.92-1.792-3.808-4.544-3.808-3.84,0-6.432,3.3-6.432,7.232a6.794,6.794,0,0,0,1.344,4.16,5.735,5.735,0,0,0,4.64,2.112,5.593,5.593,0,0,0,5.024-2.976.423.423,0,0,0-.576-.384,3.449,3.449,0,0,1-2.944,1.568c-3.424,0-5.312-2.752-5.312-5.984,0-.8.032-.864.864-.864Zm-6.208-.96c-.224,0-.224-.1-.224-.16.032-1.056,1.664-2.784,3.552-2.784,1.856,0,2.464,1.12,2.464,2.016,0,.416-.1.544-.192.608-.256.192-.96.32-3.328.32Zm12.576,5.568c0,2.3-.032,2.592-1.216,2.784l-.608.1a.56.56,0,0,0,.064.8c.832-.064,1.792-.1,2.944-.1,1.12,0,2.048.032,3.552.1a.56.56,0,0,0,.064-.8l-1.152-.1c-1.216-.1-1.28-.48-1.28-2.784V-7.936a4.867,4.867,0,0,1,.416-2.464,1.42,1.42,0,0,1,1.152-.64,2.624,2.624,0,0,1,1.408.512,1.229,1.229,0,0,0,.7.224,1.42,1.42,0,0,0,1.376-1.472,1.326,1.326,0,0,0-1.44-1.28c-1.184,0-2.4.992-3.52,1.92q-.1-.048-.1-.288V-13.28c0-.128-.1-.192-.256-.224a24.785,24.785,0,0,1-3.232,1.568.438.438,0,0,0-.032.576l.288.192c.864.576.864.736.864,1.984Zm18.176-6.848a10.316,10.316,0,0,0,4.544,8.8A14.018,14.018,0,0,0-74.144.512a18.858,18.858,0,0,0,5.056-.736,6.443,6.443,0,0,1,1.12-.32,12.027,12.027,0,0,0,1.536-4.384.673.673,0,0,0-.832-.128A6.822,6.822,0,0,1-73.952-.48c-5.248,0-9.5-3.712-9.5-10.432,0-6.624,4.16-9.728,9.056-9.728,4.64,0,6.08,2.5,6.56,4.672a.675.675,0,0,0,.864-.064c-.256-1.952-.416-3.968-.448-4.7a2.414,2.414,0,0,1-.9-.128,24.692,24.692,0,0,0-5.664-.768,13.79,13.79,0,0,0-8.64,2.72A10.63,10.63,0,0,0-86.656-10.432Zm31.584,2.24c1.344,0,1.792-.032,1.888-.224a1.978,1.978,0,0,0,.128-.832c0-1.92-1.792-3.808-4.544-3.808-3.84,0-6.432,3.3-6.432,7.232a6.794,6.794,0,0,0,1.344,4.16A5.735,5.735,0,0,0-58.048.448a5.593,5.593,0,0,0,5.024-2.976.423.423,0,0,0-.576-.384,3.449,3.449,0,0,1-2.944,1.568c-3.424,0-5.312-2.752-5.312-5.984,0-.8.032-.864.864-.864Zm-6.208-.96c-.224,0-.224-.1-.224-.16.032-1.056,1.664-2.784,3.552-2.784,1.856,0,2.464,1.12,2.464,2.016,0,.416-.1.544-.192.608-.256.192-.96.32-3.328.32ZM-48.7-3.584c0,2.3-.032,2.624-1.216,2.784l-.672.1a.56.56,0,0,0,.064.8c.9-.064,1.856-.1,3.008-.1,1.12,0,2.048.032,2.912.1a.56.56,0,0,0,.064-.8l-.576-.1c-1.152-.192-1.216-.48-1.216-2.784v-4.9a2.7,2.7,0,0,1,.48-1.92,3.489,3.489,0,0,1,2.72-1.12c2.176,0,3.008,1.344,3.008,3.168v4.768c0,2.3-.032,2.592-1.216,2.784l-.608.1a.56.56,0,0,0,.064.8c.864-.064,1.824-.1,2.976-.1,1.12,0,2.048.032,3.008.1a.56.56,0,0,0,.064-.8l-.7-.1C-37.7-.96-37.76-1.28-37.76-3.584v-5.5c0-2.144-1.088-3.968-3.744-3.968a8.773,8.773,0,0,0-4.48,1.632.336.336,0,0,1-.352-.352c0-.288,0-.768.064-1.5a.373.373,0,0,0-.352-.224,17.437,17.437,0,0,1-3.2,1.568.438.438,0,0,0-.032.576l.288.192c.864.576.864.736.864,1.984Zm23.68-7.68a1.023,1.023,0,0,0-.032-1.344h-3.552c-.544,0-.576-.032-.576-.608v-1.44c-.128-.224-.512-.224-.672-.16A7.922,7.922,0,0,1-31.2-12.928a6.354,6.354,0,0,1-2.048.992.532.532,0,0,0,.1.672h.9c.64,0,.672.064.672.928v7.328c0,1.92.576,3.456,3.328,3.456A4.431,4.431,0,0,0-24.9-1.024c.064-.192-.064-.544-.32-.544-.1,0-.512.352-.8.448a2.443,2.443,0,0,1-.864.16c-2.112,0-2.336-1.7-2.336-3.552V-10.5c0-.672.032-.768.576-.768Zm11.168,3.072c1.344,0,1.792-.032,1.888-.224a1.977,1.977,0,0,0,.128-.832c0-1.92-1.792-3.808-4.544-3.808-3.84,0-6.432,3.3-6.432,7.232a6.794,6.794,0,0,0,1.344,4.16A5.735,5.735,0,0,0-16.832.448a5.593,5.593,0,0,0,5.024-2.976.423.423,0,0,0-.576-.384,3.449,3.449,0,0,1-2.944,1.568c-3.424,0-5.312-2.752-5.312-5.984,0-.8.032-.864.864-.864Zm-6.208-.96c-.224,0-.224-.1-.224-.16.032-1.056,1.664-2.784,3.552-2.784,1.856,0,2.464,1.12,2.464,2.016,0,.416-.1.544-.192.608-.256.192-.96.32-3.328.32ZM-7.488-3.584C-7.488-1.28-7.52-.992-8.7-.8l-.608.1a.56.56,0,0,0,.064.8C-8.416.032-7.456,0-6.3,0c1.12,0,2.048.032,3.552.1a.56.56,0,0,0,.064-.8L-3.84-.8c-1.216-.1-1.28-.48-1.28-2.784V-7.936A4.867,4.867,0,0,1-4.7-10.4a1.42,1.42,0,0,1,1.152-.64,2.624,2.624,0,0,1,1.408.512,1.229,1.229,0,0,0,.7.224A1.42,1.42,0,0,0-.064-11.776a1.326,1.326,0,0,0-1.44-1.28c-1.184,0-2.4.992-3.52,1.92q-.1-.048-.1-.288V-13.28c0-.128-.1-.192-.256-.224a24.785,24.785,0,0,1-3.232,1.568.438.438,0,0,0-.032.576l.288.192c.864.576.864.736.864,1.984Z" transform="translate(254.964 290.789)"/><path class="d" d="M-165.952-15.936c-.992-2.048-1.792-4.032-1.664-5.28-1.056.1-1.92.1-2.656.1-.8,0-1.568-.032-2.528-.1a.6.6,0,0,0-.128.8l.512.064c1.952.256,2.208.736,2.144,2.752-.064,1.76-.192,4.48-.352,7.136-.192,3.168-.352,4.928-.544,7.04-.192,2.24-.64,2.432-1.984,2.624l-.7.1a.632.632,0,0,0,.064.8c1.088-.064,2.24-.1,3.264-.1,1.216,0,2.464.032,3.552.1.224-.1.256-.608.032-.8l-1.216-.1c-1.248-.1-1.44-.608-1.44-2.976,0-2.72.128-5.568.224-7.52.1-1.856.192-3.712.32-5.7h.064c.7,1.472,1.376,3.136,2.048,4.608l2.88,6.176c.736,1.568,2.272,4.7,2.816,6.4a.391.391,0,0,0,.288.128.371.371,0,0,0,.32-.128c.576-1.472,2.016-4.48,3.456-7.3l2.848-5.6c.64-1.248,1.856-3.808,2.08-4.16h.064l.1,13.344c0,2.048,0,2.56-1.568,2.72l-.928.1a.593.593,0,0,0,.064.8c1.312-.064,2.752-.1,3.872-.1,1.152,0,2.464.032,3.776.1a.59.59,0,0,0,.064-.8l-1.024-.1c-1.5-.128-1.472-.992-1.568-2.592-.256-4.608-.288-10.528-.352-13.92-.032-2.24.224-2.848,2.24-3.04l.672-.064a.673.673,0,0,0-.032-.8c-.992.064-2.048.1-2.848.1-.64,0-1.312,0-2.4-.1-.064,1.472-.992,3.232-2.432,6.144l-3.008,6.112c-.8,1.632-1.6,3.3-2.464,4.8h-.064c-.768-1.408-1.472-2.88-2.208-4.384Zm24.416,10.688c-2.048.736-2.656,1.472-2.656,2.72a2.994,2.994,0,0,0,.992,2.24,3.312,3.312,0,0,0,2.24.736,4.736,4.736,0,0,0,2.3-.8,4.913,4.913,0,0,1,1.248-.64c.192,0,.384.256.512.448a2.554,2.554,0,0,0,2.08.992A3.357,3.357,0,0,0-132.128-.96c0-.224-.1-.416-.224-.416-.1,0-.256.128-.416.224a1.839,1.839,0,0,1-.8.192c-1.248,0-1.536-1.312-1.472-2.784l.192-5.568c.1-2.4-1.024-3.744-3.328-3.744-2.336,0-5.952,2.272-5.952,3.936a.4.4,0,0,0,.448.448,3.443,3.443,0,0,0,1.824-.608c.256-.192.288-.576.32-1.088.064-.992,1.152-1.44,2.048-1.44,1.984,0,2.368,1.6,2.336,2.784l-.032,1.472c0,.48-.064.768-.544.928Zm-.192,2.336c0-1.248.928-1.728,2.816-2.368A6.039,6.039,0,0,1-137.6-5.6c.192,0,.32.064.32.416l-.064,1.888c-.032.672-.032,1.12-.416,1.5a3.619,3.619,0,0,1-1.952.8A1.929,1.929,0,0,1-141.728-2.912Zm15.936-10.144c-2.432,0-4.352,1.312-4.352,3.648,0,1.76,1.312,2.88,3.168,3.936,1.184.672,2.464,1.472,2.464,2.944A1.971,1.971,0,0,1-126.656-.48c-1.824,0-2.848-1.536-3.392-3.3a.543.543,0,0,0-.736.032A9.514,9.514,0,0,0-130.4-.512a5.323,5.323,0,0,0,3.424.96c2.368,0,4.608-1.216,4.608-3.648,0-2.272-1.568-3.36-3.264-4.32-1.12-.64-2.464-1.344-2.464-2.656a1.891,1.891,0,0,1,2.048-1.952,3.121,3.121,0,0,1,2.816,2.336.557.557,0,0,0,.768-.1,7.474,7.474,0,0,0-.512-2.592A5.662,5.662,0,0,0-125.792-13.056Zm10.976,0c-2.432,0-4.352,1.312-4.352,3.648,0,1.76,1.312,2.88,3.168,3.936,1.184.672,2.464,1.472,2.464,2.944A1.971,1.971,0,0,1-115.68-.48c-1.824,0-2.848-1.536-3.392-3.3a.543.543,0,0,0-.736.032,9.514,9.514,0,0,0,.384,3.232A5.323,5.323,0,0,0-116,.448c2.368,0,4.608-1.216,4.608-3.648,0-2.272-1.568-3.36-3.264-4.32-1.12-.64-2.464-1.344-2.464-2.656a1.891,1.891,0,0,1,2.048-1.952,3.121,3.121,0,0,1,2.816,2.336.557.557,0,0,0,.768-.1A7.474,7.474,0,0,0-112-12.48,5.662,5.662,0,0,0-114.816-13.056Zm34.4,8c0-1.632.032-2.528,1.376-2.688l.512-.064a.558.558,0,0,0-.032-.8c-1.056.064-2.144.1-3.392.1-1.888,0-3.648-.032-4.576-.1a.534.534,0,0,0,0,.8l1.408.16c1.984.224,2.08.416,2.08,3.1v1.28a3.565,3.565,0,0,1-.32,1.824c-.352.544-1.536.96-3.52.96-6.432,0-9.6-4.832-9.6-10.976,0-4.8,2.72-9.216,8.928-9.216,3.264,0,5.664,1.088,6.56,4.544.192.192.768.16.864-.1a36,36,0,0,1-.48-4.64,8.445,8.445,0,0,1-1.984-.288,19.124,19.124,0,0,0-4.064-.48c-4.832,0-8,1.5-10.144,3.744A10.981,10.981,0,0,0-99.68-10.3,10.073,10.073,0,0,0-96.736-3.04c2.464,2.5,5.952,3.552,9.76,3.552A25.014,25.014,0,0,0-81.248-.32,7.17,7.17,0,0,1-79.68-.608a.263.263,0,0,0,.032-.384c-.576-.224-.768-.992-.768-2.272Zm13.7-3.136c1.344,0,1.792-.032,1.888-.224a1.978,1.978,0,0,0,.128-.832c0-1.92-1.792-3.808-4.544-3.808-3.84,0-6.432,3.3-6.432,7.232a6.794,6.794,0,0,0,1.344,4.16A5.735,5.735,0,0,0-69.7.448a5.593,5.593,0,0,0,5.024-2.976.423.423,0,0,0-.576-.384,3.449,3.449,0,0,1-2.944,1.568c-3.424,0-5.312-2.752-5.312-5.984,0-.8.032-.864.864-.864Zm-6.208-.96c-.224,0-.224-.1-.224-.16.032-1.056,1.664-2.784,3.552-2.784,1.856,0,2.464,1.12,2.464,2.016,0,.416-.1.544-.192.608-.256.192-.96.32-3.328.32Zm12.576,5.568c0,2.3-.032,2.624-1.216,2.784l-.672.1a.56.56,0,0,0,.064.8c.9-.064,1.856-.1,3.008-.1,1.12,0,2.048.032,2.912.1a.56.56,0,0,0,.064-.8l-.576-.1c-1.152-.192-1.216-.48-1.216-2.784v-4.9a2.7,2.7,0,0,1,.48-1.92,3.489,3.489,0,0,1,2.72-1.12c2.176,0,3.008,1.344,3.008,3.168v4.768c0,2.3-.032,2.592-1.216,2.784l-.608.1a.56.56,0,0,0,.064.8c.864-.064,1.824-.1,2.976-.1,1.12,0,2.048.032,3.008.1a.56.56,0,0,0,.064-.8l-.7-.1c-1.152-.16-1.216-.48-1.216-2.784v-5.5c0-2.144-1.088-3.968-3.744-3.968a8.773,8.773,0,0,0-4.48,1.632.336.336,0,0,1-.352-.352c0-.288,0-.768.064-1.5a.373.373,0,0,0-.352-.224,17.437,17.437,0,0,1-3.2,1.568.438.438,0,0,0-.032.576l.288.192c.864.576.864.736.864,1.984Zm24.384-4.608c1.344,0,1.792-.032,1.888-.224a1.978,1.978,0,0,0,.128-.832c0-1.92-1.792-3.808-4.544-3.808-3.84,0-6.432,3.3-6.432,7.232a6.794,6.794,0,0,0,1.344,4.16A5.735,5.735,0,0,0-38.944.448,5.593,5.593,0,0,0-33.92-2.528a.423.423,0,0,0-.576-.384A3.449,3.449,0,0,1-37.44-1.344c-3.424,0-5.312-2.752-5.312-5.984,0-.8.032-.864.864-.864Zm-6.208-.96c-.224,0-.224-.1-.224-.16.032-1.056,1.664-2.784,3.552-2.784,1.856,0,2.464,1.12,2.464,2.016,0,.416-.1.544-.192.608-.256.192-.96.32-3.328.32ZM-29.6-3.584c0,2.3-.032,2.592-1.216,2.784l-.608.1a.56.56,0,0,0,.064.8c.832-.064,1.792-.1,2.944-.1,1.12,0,2.048.032,3.552.1A.56.56,0,0,0-24.8-.7l-1.152-.1c-1.216-.1-1.28-.48-1.28-2.784V-7.936a4.867,4.867,0,0,1,.416-2.464,1.42,1.42,0,0,1,1.152-.64,2.624,2.624,0,0,1,1.408.512,1.229,1.229,0,0,0,.7.224,1.42,1.42,0,0,0,1.376-1.472,1.326,1.326,0,0,0-1.44-1.28c-1.184,0-2.4.992-3.52,1.92q-.1-.048-.1-.288V-13.28c0-.128-.1-.192-.256-.224a24.785,24.785,0,0,1-3.232,1.568.438.438,0,0,0-.032.576l.288.192c.864.576.864.736.864,1.984Zm11.9-1.664c-2.048.736-2.656,1.472-2.656,2.72a2.994,2.994,0,0,0,.992,2.24,3.312,3.312,0,0,0,2.24.736,4.736,4.736,0,0,0,2.3-.8,4.913,4.913,0,0,1,1.248-.64c.192,0,.384.256.512.448a2.554,2.554,0,0,0,2.08.992A3.357,3.357,0,0,0-8.288-.96c0-.224-.1-.416-.224-.416-.1,0-.256.128-.416.224a1.839,1.839,0,0,1-.8.192c-1.248,0-1.536-1.312-1.472-2.784l.192-5.568c.1-2.4-1.024-3.744-3.328-3.744-2.336,0-5.952,2.272-5.952,3.936a.4.4,0,0,0,.448.448,3.443,3.443,0,0,0,1.824-.608c.256-.192.288-.576.32-1.088.064-.992,1.152-1.44,2.048-1.44,1.984,0,2.368,1.6,2.336,2.784l-.032,1.472c0,.48-.064.768-.544.928Zm-.192,2.336c0-1.248.928-1.728,2.816-2.368A6.039,6.039,0,0,1-13.76-5.6c.192,0,.32.064.32.416L-13.5-3.3c-.032.672-.032,1.12-.416,1.5a3.619,3.619,0,0,1-1.952.8A1.929,1.929,0,0,1-17.888-2.912ZM-2.72-18.72c0-1.408.064-3.008.1-3.968a.352.352,0,0,0-.32-.192A22.706,22.706,0,0,1-6.4-21.536a.487.487,0,0,0,0,.64l.32.192c.96.576.992.768.992,2.656V-3.584C-5.088-1.28-5.12-.96-6.3-.8l-.736.1a.56.56,0,0,0,.064.8C-6.016.032-5.056,0-3.9,0c1.12,0,2.048.032,3.1.1A.56.56,0,0,0-.736-.7L-1.5-.8C-2.656-.96-2.72-1.28-2.72-3.584Z" transform="translate(254.319 247.724)"/><path class="e" d="M-1432.878,340.408h258.941" transform="translate(1432.878 -80)"/><rect class="c" width="7" height="152" transform="translate(293 176)"/></g></svg>