<svg xmlns="http://www.w3.org/2000/svg" width="152.794" height="30.508" viewBox="0 0 152.794 30.508"><defs><style>.a,.b{fill:#fff;}.b{fill-rule:evenodd;}</style></defs><g transform="translate(32.382 0.603)"><g transform="translate(0 0)"><path class="a" d="M118.058,104.215a1.211,1.211,0,0,1-.055.478c-.081.213-.749.412-1.643.41-2.4,0-3.768-1.664-3.767-3.986a3.2,3.2,0,0,1,3.376-3.537,4.994,4.994,0,0,1,1.635.211c.552.194.97.384.97.932v.621h.367a6.954,6.954,0,0,1,.224-1.778,9.289,9.289,0,0,0-2.9-.478c-2.818.008-4.926,1.663-4.926,4.229,0,2.925,2.108,4.281,4.713,4.276a12.954,12.954,0,0,0,3.074-.6l0-1.958c0-.341,0-.389.13-.432l.339-.119-.051-.293c-.479.011-.954.027-1.431.026s-.95-.013-1.428-.02v.344l.974.084c.3.025.389.14.4.414l0,1.171Z" transform="translate(-111.259 -84.705)"/><path class="a" d="M133.192,104.2a2.047,2.047,0,0,1-.1.877c-.068.115-.21.152-.49.179l-.422.035,0,.347c.422-.009.808-.042,1.251-.042.722.006,1.649.024,2.545.037.866.011,1.792-.024,2.3-.038a10.171,10.171,0,0,1,.188-1.912h-.411c-.079.7-.229,1.216-.407,1.311a11.208,11.208,0,0,1-2.362.151,4.152,4.152,0,0,1-.981-.095l-.006-3.262a12.432,12.432,0,0,1,1.359-.039,2.849,2.849,0,0,1,1.238.138c.061.036.084.143.09.294l.057.682.353,0c-.008-.419-.035-.863-.031-1.3s.02-.876.031-1.354l-.35,0-.062.6c-.01.152-.03.256-.092.305a3.125,3.125,0,0,1-1.239.129c-.559,0-.983-.011-1.353-.03l-.006-3.116a4.032,4.032,0,0,1,.98-.093,7.258,7.258,0,0,1,2.295.244c.09.029.1.16.11.313l0,.76h.408a7.988,7.988,0,0,1,.182-1.778c-.458-.023-.98-.034-1.512-.029-.661,0-1.734.036-2.753.036-.667,0-1.332-.022-1.975-.033v.352l.559.036c.285.011.423.059.5.176a2.151,2.151,0,0,1,.1.873V104.2Z" transform="translate(-122.851 -84.949)"/><path class="a" d="M150.166,104.179a2.072,2.072,0,0,1-.109.875c-.064.114-.211.153-.49.174l-.511.036v.354c.468-.016.935-.04,1.355-.04.46,0,.885.018,1.4.029l0-.346-.515-.036c-.283-.021-.418-.058-.491-.174a2.023,2.023,0,0,1-.108-.873l0-5.381.021,0,5.511,6.816,1.052.183c-.008-.14-.032-.288-.032-.429l-.007-6.442a1.912,1.912,0,0,1,.109-.875c.063-.113.2-.151.487-.172l.514-.033,0-.348c-.514,0-.937.032-1.405.034-.415,0-.888-.026-1.355-.036l.005.351.511.033c.277.023.416.057.491.178a2.025,2.025,0,0,1,.109.867l0,5.455h-.04l-5.584-6.877c-.211.007-.422.034-.632.033-.424,0-.885-.022-1.409-.036l0,.358.517.028c.277.023.419.061.489.177a2.117,2.117,0,0,1,.1.875l.011,5.236Z" transform="translate(-132.383 -84.936)"/><path class="a" d="M173.391,104.154a1.978,1.978,0,0,1-.1.876c-.063.116-.21.154-.485.174l-.424.037v.352c.42-.016.81-.042,1.248-.042.729,0,1.653.025,2.553.034.862.015,1.785-.024,2.3-.038a9.744,9.744,0,0,1,.185-1.909h-.409c-.08.7-.229,1.209-.413,1.305a11.15,11.15,0,0,1-2.354.154,4.134,4.134,0,0,1-.983-.092l-.006-3.265c.366-.039.793-.036,1.358-.036a2.926,2.926,0,0,1,1.237.14c.059.034.082.141.1.292l.056.683.353,0c-.019-.412-.042-.857-.036-1.289s.022-.88.031-1.355l-.349,0-.059.607c-.007.147-.034.259-.091.3a3.059,3.059,0,0,1-1.242.135c-.559,0-.982-.012-1.354-.034l-.007-3.115a4.129,4.129,0,0,1,.986-.1,7.384,7.384,0,0,1,2.291.242c.1.032.1.162.1.315l0,.758.407,0a7.732,7.732,0,0,1,.188-1.775c-.458-.026-.984-.04-1.507-.035-.67,0-1.745.036-2.761.035-.67,0-1.333-.019-1.974-.029l0,.35.567.032c.275.01.414.059.488.177a1.976,1.976,0,0,1,.107.874l0,5.235Z" transform="translate(-145.375 -84.924)"/><path class="a" d="M191.811,98.046a4.7,4.7,0,0,1,1.2-.142c.909,0,1.838.352,1.847,1.609a1.723,1.723,0,0,1-1.521,1.634,4.126,4.126,0,0,1-1.027.049l-.071.141c.2.248.423.464.611.721L195,104.933c.152.212.328.412.474.633.273-.015.533-.042.8-.039s.536.023.845.038l0-.352a.9.9,0,0,1-.711-.3l-2.66-3.448a2.5,2.5,0,0,0,2.279-2.257c-.006-.843-.492-1.782-2.365-1.746-.677.01-1.357.037-2.043.037s-1.366-.024-1.987-.035l0,.354.482.034c.274.019.419.06.495.172a2.05,2.05,0,0,1,.1.878l.008,5.235a2.026,2.026,0,0,1-.108.876c-.066.117-.205.162-.486.178l-.564.03v.35c.608-.028,1.159-.037,1.736-.036.528,0,1.079.008,1.693.037l0-.357-.565-.033c-.276-.012-.419-.053-.492-.172a2.185,2.185,0,0,1-.106-.873l-.006-6.09Z" transform="translate(-155.084 -84.913)"/><path class="b" d="M211.116,97.225l-.374,0c-.315.842-.716,1.706-1.069,2.521l-2.08,4.724a.853.853,0,0,1-.625.577l-.433.026,0,.355c.441-.012.889-.04,1.345-.038.336,0,.782.026,1.344.033l0-.351-.429-.029c-.359-.042-.56-.084-.56-.328a6.754,6.754,0,0,1,.409-1.218l.32-.774,3.366,0,.539,1.339a2.4,2.4,0,0,1,.245.743c0,.14-.232.219-.473.235l-.546.032,0,.35c.632-.013,1.143-.039,1.553-.039.523,0,1.037.025,1.557.035l0-.343-.4-.037c-.215-.028-.343-.176-.473-.4-.141-.245-.269-.557-.379-.791l-2.83-6.624Zm-1.962,5.029,1.488-3.477,1.473,3.478Z" transform="translate(-164.598 -84.782)"/><path class="a" d="M229.93,98.849a2.148,2.148,0,0,1,.1-.873c.073-.119.211-.163.491-.181l.561-.033v-.35c-.6.025-1.155.043-1.693.041-.572,0-1.123-.011-1.732-.034l0,.355.56.028c.283.019.424.062.492.176a2.076,2.076,0,0,1,.109.875v5.531a.712.712,0,0,1-.288.685l-.364.19,0,.265c.3-.011.6-.035.995-.037.722,0,1.493.026,2.543.037.867.016,1.793-.029,2.3-.035.093-.585.179-1.371.25-2.009h-.378l-.142.58a2.069,2.069,0,0,1-.24.748,8.4,8.4,0,0,1-2.588.222,3.652,3.652,0,0,1-.976-.088l-.01-6.092Z" transform="translate(-176.438 -84.887)"/><path class="a" d="M258.433,98.816a2.015,2.015,0,0,1,.1-.88c.071-.112.212-.158.49-.17l.564-.035,0-.349c-.61.027-1.155.031-1.695.036-.568,0-1.123-.014-1.728-.033l0,.347.563.038c.276.011.419.054.488.171a2.069,2.069,0,0,1,.1.878l0,2.074c-.143.011-.455.026-.974.027h-2.731c-.512.005-.827-.007-.971-.018l0-2.077a2.043,2.043,0,0,1,.1-.878c.065-.116.212-.16.49-.172l.556-.043,0-.346c-.6.029-1.154.038-1.7.038-.57,0-1.118-.014-1.73-.03l0,.345.561.034c.283.014.421.06.5.177a2.276,2.276,0,0,1,.1.875l0,5.237a2.2,2.2,0,0,1-.1.877c-.072.112-.216.162-.5.174l-.553.036,0,.348c.607-.025,1.158-.035,1.732-.032.537,0,1.085.005,1.694.032v-.351l-.565-.037c-.279-.006-.422-.055-.488-.175a1.992,1.992,0,0,1-.106-.871l-.01-2.6c.147-.009.46-.024.977-.026l2.735,0c.516,0,.831.013.971.021v2.6a1.977,1.977,0,0,1-.109.877c-.062.118-.205.167-.49.181l-.557.036,0,.346c.607-.028,1.162-.034,1.731-.034.536,0,1.086.013,1.7.037l0-.356-.557-.036c-.286-.009-.419-.054-.494-.173a2.042,2.042,0,0,1-.11-.875l0-5.237Z" transform="translate(-189.164 -84.87)"/><path class="b" d="M276.663,105.422a4.474,4.474,0,0,0,4.522-4.515c-.007-2.592-1.784-3.992-4.283-3.989a4.125,4.125,0,0,0-4.389,4.261,3.993,3.993,0,0,0,4.15,4.242Zm.051-8.014c2.171,0,3.216,1.552,3.22,3.854,0,2.148-.944,3.67-2.9,3.667-2.311.008-3.271-2.139-3.276-4.18-.005-1.913.922-3.34,2.952-3.341Z" transform="translate(-201.571 -84.609)"/><path class="a" d="M299.655,99.029a8.069,8.069,0,0,1,.163-1.647A5.388,5.388,0,0,0,297.7,96.9a2.741,2.741,0,0,0-2.986,2.643c0,1.207.723,1.779,2.559,1.988,1.191.141,2.058.455,2.063,1.559a1.932,1.932,0,0,1-2.093,1.805c-.92,0-1.844-.444-1.9-.931l-.1-.787-.368,0a11.317,11.317,0,0,1-.085,1.782,5.029,5.029,0,0,0,2,.441c1.736,0,3.526-.959,3.523-2.959,0-1.328-1.043-1.732-2.691-1.906-1.457-.164-1.93-.65-1.927-1.444a1.667,1.667,0,0,1,1.727-1.708,2.6,2.6,0,0,1,1.27.281c.429.267.482.383.515.7l.073.669.374,0Z" transform="translate(-214.013 -84.598)"/><path class="a" d="M312.185,97.905a4.744,4.744,0,0,1,1.193-.144c1.155,0,1.892.528,1.894,1.744a1.681,1.681,0,0,1-1.683,1.737,2.548,2.548,0,0,1-.773-.112l.121.415a2.942,2.942,0,0,0,.7.068,2.626,2.626,0,0,0,2.811-2.507c0-1.316-1.294-1.8-2.43-1.785-.63.015-1.306.038-1.984.041s-1.333-.025-2.1-.037v.349l.528.043c.294.021.424.079.5.194a2,2,0,0,1,.117.848l0,5.238a2.051,2.051,0,0,1-.106.876c-.069.121-.209.164-.488.172l-.563.04,0,.349c.6-.025,1.153-.035,1.729-.036.535,0,1.082.012,1.693.03l0-.343-.56-.037c-.284-.011-.422-.059-.49-.177a2,2,0,0,1-.109-.877l-.006-6.088Z" transform="translate(-222.535 -84.834)"/><path class="a" d="M328.611,98.75a2.033,2.033,0,0,1,.1-.873c.073-.12.217-.166.5-.177l.557-.034,0-.351c-.611.019-1.157.033-1.7.032-.578.008-1.121-.008-1.724-.024l0,.346.559.031c.28.016.424.059.491.178a1.9,1.9,0,0,1,.11.873l.006,5.241a2.084,2.084,0,0,1-.108.871c-.073.114-.208.164-.492.178l-.563.029.005.355c.608-.027,1.154-.039,1.726-.039.535,0,1.088.012,1.695.035l0-.351-.557-.032c-.284-.015-.419-.059-.491-.178a2.052,2.052,0,0,1-.11-.87l0-5.239Z" transform="translate(-231.735 -84.832)"/><path class="a" d="M338.6,103.964a1.988,1.988,0,0,1-.1.877c-.069.118-.209.16-.489.175l-.561.035,0,.351c.612-.017,1.158-.034,1.731-.035.539,0,1.087.015,1.7.035l0-.354-.562-.03c-.28-.018-.423-.058-.493-.174a2.22,2.22,0,0,1-.106-.883l-.007-4.93c.006-.442.018-.816.049-1.161l1.808,0c.354,0,.448.1.475.377l.044.927.363,0c0-.629.021-1.273.081-1.88-.843,0-1.685.034-2.525.037l-1.693.007c-.842,0-1.685-.035-2.528-.034.056.6.087,1.246.092,1.876l.353,0,.042-.923c.032-.277.122-.379.471-.38l1.813,0c.03.343.051.72.051,1.162l0,4.927Z" transform="translate(-237.017 -84.82)"/><path class="b" d="M354.181,97.068l-.373,0c-.316.837-.711,1.7-1.073,2.516l-2.076,4.73a.839.839,0,0,1-.632.574l-.428.029,0,.357c.441-.008.881-.042,1.335-.042.339,0,.79.025,1.351.032l0-.346-.43-.033c-.368-.032-.565-.083-.561-.329a6.705,6.705,0,0,1,.4-1.21l.326-.782,3.368,0,.54,1.339a2.537,2.537,0,0,1,.244.745c0,.142-.233.225-.477.236l-.548.034,0,.352c.634-.014,1.145-.041,1.56-.039.521,0,1.038.024,1.55.033v-.35l-.4-.032c-.209-.023-.338-.177-.47-.4-.142-.248-.265-.564-.372-.794l-2.834-6.623Zm-1.955,5.032,1.477-3.481,1.476,3.477-2.953,0Z" transform="translate(-244.766 -84.694)"/><path class="a" d="M372.313,98.7a2.056,2.056,0,0,1,.1-.876c.069-.117.208-.158.49-.177l.559-.031v-.352c-.606.023-1.16.036-1.694.036-.567,0-1.118-.007-1.727-.031l0,.346.566.037c.277.01.422.054.489.172a2.13,2.13,0,0,1,.107.879l0,5.53a.742.742,0,0,1-.291.683l-.363.185,0,.273c.3-.015.587-.041.991-.038.721,0,1.491.023,2.539.034.868.013,1.8-.024,2.306-.037.087-.581.167-1.366.238-2.007h-.37l-.134.585a2.193,2.193,0,0,1-.252.746,8.719,8.719,0,0,1-2.577.225,4.359,4.359,0,0,1-.979-.093l-.007-6.089Z" transform="translate(-256.222 -84.802)"/><path class="a" d="M120.625,70.994a1.953,1.953,0,0,1,.11-.868c.066-.124.206-.157.484-.18l.492-.041,0-.345c-.344.012-.716.036-1.093.032s-.736-.018-1.1-.03l-3.056,6.486-3.093-6.481c-.361.014-.731.041-1.111.034s-.744-.018-1.106-.032v.354l.511.034c.285.023.417.052.493.173a2.112,2.112,0,0,1,.108.873l0,5.241a2.052,2.052,0,0,1-.106.873c-.071.116-.209.15-.489.176l-.514.032v.349c.467-.007.937-.034,1.356-.034.465,0,.887.023,1.4.033l0-.351-.51-.035c-.282-.017-.422-.057-.485-.173a2,2,0,0,1-.112-.872l-.008-5.292.024,0,3.245,6.845.233,0c.211-.487.415-1,.628-1.48L119,71.9c.155-.315.317-.648.488-.959h.025l.007,5.292a2.279,2.279,0,0,1-.1.878c-.077.113-.215.146-.5.171l-.4.036,0,.351c.444-.025.994-.036,1.571-.04.528,0,1.081.015,1.691.041v-.354l-.559-.036c-.28-.007-.426-.057-.49-.178a2.038,2.038,0,0,1-.109-.869l-.007-5.238Z" transform="translate(-111.151 -69.259)"/><path class="b" d="M139.936,69.342h-.374c-.312.84-.713,1.7-1.074,2.516l-2.076,4.727a.841.841,0,0,1-.624.573l-.432.033,0,.356c.442-.018.885-.041,1.344-.044.335,0,.783.025,1.346.038l0-.356-.435-.032c-.359-.032-.554-.083-.558-.325a6.706,6.706,0,0,1,.408-1.214l.325-.783,3.361,0,.541,1.341a2.622,2.622,0,0,1,.254.743c-.006.143-.237.221-.485.235l-.546.035-.005.354c.64-.015,1.149-.042,1.56-.04.523,0,1.043.018,1.554.037l0-.35-.4-.036c-.215-.023-.342-.175-.463-.4a7.125,7.125,0,0,1-.379-.79l-2.835-6.62Zm-1.957,5.025,1.48-3.476,1.474,3.473-2.954,0Z" transform="translate(-124.712 -69.137)"/><path class="a" d="M160.842,71.215a8.7,8.7,0,0,1,.166-1.646,5.4,5.4,0,0,0-2.116-.482,2.738,2.738,0,0,0-2.985,2.637c0,1.208.725,1.778,2.558,1.986,1.195.144,2.056.459,2.052,1.564a1.905,1.905,0,0,1-2.085,1.8c-.92,0-1.843-.436-1.905-.929l-.1-.783h-.368a10.066,10.066,0,0,1-.085,1.788,5.114,5.114,0,0,0,2,.441c1.738,0,3.525-.962,3.525-2.96-.006-1.326-1.044-1.735-2.688-1.909-1.467-.16-1.931-.648-1.932-1.44a1.663,1.663,0,0,1,1.727-1.709,2.578,2.578,0,0,1,1.273.283c.437.262.485.379.513.7l.076.662.37,0Z" transform="translate(-136.23 -68.993)"/><path class="a" d="M175.955,71.189a8.542,8.542,0,0,1,.16-1.643,5.428,5.428,0,0,0-2.116-.49,2.754,2.754,0,0,0-2.991,2.644c.005,1.21.728,1.777,2.56,1.991,1.2.14,2.062.453,2.062,1.559a1.916,1.916,0,0,1-2.094,1.8c-.917,0-1.844-.443-1.9-.924l-.1-.788-.374,0a9.509,9.509,0,0,1-.077,1.791,5.067,5.067,0,0,0,2,.439c1.74-.007,3.529-.959,3.529-2.954,0-1.326-1.044-1.739-2.692-1.908-1.467-.16-1.927-.65-1.93-1.447a1.668,1.668,0,0,1,1.73-1.7,2.615,2.615,0,0,1,1.27.279c.436.268.48.388.514.7l.068.662Z" transform="translate(-144.692 -68.976)"/><path class="b" d="M188.458,69.282l-.375,0c-.308.84-.713,1.706-1.074,2.521l-2.073,4.727a.836.836,0,0,1-.631.571l-.432.034.007.352c.443-.017.882-.035,1.337-.036.34,0,.786.022,1.345.032l0-.35-.432-.032c-.359-.034-.556-.082-.563-.33a6.455,6.455,0,0,1,.414-1.211l.319-.779,3.369,0,.54,1.337a2.572,2.572,0,0,1,.241.747c0,.138-.225.218-.472.234l-.552.036,0,.348c.634-.016,1.145-.032,1.555-.035.524,0,1.043.023,1.555.031v-.348l-.394-.036c-.218-.016-.342-.171-.471-.391-.138-.246-.275-.566-.379-.8l-2.831-6.619ZM186.5,74.309l1.481-3.48,1.47,3.475-2.95,0Z" transform="translate(-151.901 -69.101)"/><path class="a" d="M211.112,76.307l-.106-.117a4.457,4.457,0,0,1-2.372.7,3.6,3.6,0,0,1-3.849-3.8,3.271,3.271,0,0,1,3.348-3.59,4.64,4.64,0,0,1,1.309.2c.539.2,1.008.4,1.008.726l0,.837.361,0a8.307,8.307,0,0,1,.218-1.771,8.744,8.744,0,0,0-2.7-.471,5.261,5.261,0,0,0-3.377,1.118,3.9,3.9,0,0,0-1.419,3.148c0,2.648,1.9,4.237,4.7,4.235a5.677,5.677,0,0,0,2.552-.632l.329-.583Z" transform="translate(-162.919 -68.956)"/><path class="a" d="M230.814,70.872a2.028,2.028,0,0,1,.1-.877c.075-.111.216-.164.489-.166l.561-.044v-.349c-.607.025-1.156.036-1.694.035-.574.007-1.124-.005-1.722-.027l0,.347.559.034c.279.011.424.061.491.179a1.908,1.908,0,0,1,.106.869l0,2.076c-.143.017-.459.028-.976.029H226c-.517,0-.83-.009-.972-.017l0-2.082a2.1,2.1,0,0,1,.11-.869c.067-.121.2-.169.487-.177l.563-.038-.007-.351c-.6.027-1.154.034-1.687.032-.571.007-1.125-.009-1.737-.028l.006.348.561.038c.283.011.421.057.495.172a2.122,2.122,0,0,1,.1.872V76.12a1.926,1.926,0,0,1-.1.872c-.072.119-.2.16-.485.172l-.56.036,0,.355c.613-.03,1.158-.043,1.731-.036.538,0,1.085,0,1.693.033l0-.358-.56-.033c-.284-.011-.426-.058-.489-.17a2.006,2.006,0,0,1-.112-.879v-2.6c.139-.017.452-.024.966-.028h2.736c.512,0,.83.011.975.022l0,2.6a2.116,2.116,0,0,1-.1.879c-.071.114-.215.158-.493.173l-.557.035v.352c.6-.025,1.154-.039,1.722-.038.544,0,1.092.012,1.7.033l0-.351-.564-.032c-.282-.014-.416-.058-.492-.175a2.049,2.049,0,0,1-.1-.876l-.006-5.238Z" transform="translate(-173.688 -69.189)"/><path class="a" d="M246.74,75c0,2.13,1.172,2.728,3.158,2.724,2.358,0,3.3-1.008,3.3-3.507l0-3.367a2,2,0,0,1,.1-.873c.076-.122.215-.151.491-.178l.52-.032,0-.359c-.515.016-.936.039-1.4.043-.419,0-.886-.025-1.351-.038l0,.352.514.036c.283.023.418.057.5.172a2.132,2.132,0,0,1,.1.876l.007,3.735a2.126,2.126,0,0,1-2.405,2.413c-1.542.006-2.41-.475-2.41-2.132l0-4.012a2.043,2.043,0,0,1,.1-.873c.068-.119.21-.164.494-.178l.556-.036v-.351c-.606.029-1.159.041-1.692.041-.574,0-1.123-.011-1.729-.033l0,.35.56.029c.274.014.421.061.492.178a2.056,2.056,0,0,1,.1.868l0,4.15Z" transform="translate(-186.478 -69.171)"/><path class="a" d="M272.129,71.085a7.476,7.476,0,0,1,.163-1.646,5.333,5.333,0,0,0-2.114-.492,2.753,2.753,0,0,0-2.992,2.644c0,1.21.726,1.784,2.557,1.991,1.193.138,2.059.45,2.063,1.559a1.922,1.922,0,0,1-2.092,1.8c-.922,0-1.846-.441-1.9-.932l-.1-.785-.373,0a9.673,9.673,0,0,1-.08,1.788,5.061,5.061,0,0,0,1.994.443c1.744,0,3.531-.964,3.529-2.958,0-1.33-1.042-1.736-2.689-1.907-1.457-.161-1.929-.654-1.933-1.447A1.667,1.667,0,0,1,269.9,69.44a2.54,2.54,0,0,1,1.27.28c.434.265.484.385.517.7l.07.667Z" transform="translate(-198.586 -68.915)"/><path class="a" d="M283.059,76.06a2.01,2.01,0,0,1-.109.877c-.064.113-.207.146-.488.176l-.423.034,0,.351c.422-.017.81-.037,1.249-.037.729,0,1.65.021,2.55.032.864.007,1.788-.028,2.3-.039a10.471,10.471,0,0,1,.183-1.911h-.408c-.084.7-.233,1.21-.41,1.305a10.5,10.5,0,0,1-2.355.155,4.082,4.082,0,0,1-.984-.1l0-3.26a12.681,12.681,0,0,1,1.356-.039,2.86,2.86,0,0,1,1.238.137c.059.034.085.144.091.29l.059.693h.35c-.008-.423-.035-.866-.036-1.29s.022-.882.036-1.355l-.356-.007-.05.609c-.014.151-.032.255-.1.305a3.139,3.139,0,0,1-1.237.126c-.564,0-.979-.009-1.361-.027l0-3.118a4.478,4.478,0,0,1,.979-.1,7.371,7.371,0,0,1,2.293.246c.088.035.1.16.1.313l0,.76.411,0a7.53,7.53,0,0,1,.193-1.778c-.463-.026-.984-.031-1.515-.031-.666,0-1.738.038-2.755.039-.67,0-1.332-.021-1.981-.032l0,.349.558.034c.288.011.424.062.492.177a2.029,2.029,0,0,1,.109.871l.009,5.237Z" transform="translate(-206.824 -69.16)"/><path class="a" d="M301.23,76.039a2.125,2.125,0,0,1-.1.877c-.074.115-.215.159-.493.176l-.557.036-.006.351c.614-.029,1.159-.041,1.729-.04.543,0,1.091.013,1.7.036l0-.354-.566-.036c-.28-.01-.422-.052-.489-.169a2.121,2.121,0,0,1-.109-.877l0-4.934a10.581,10.581,0,0,1,.042-1.166l1.816-.007c.348,0,.439.109.462.389l.055.919.357,0c0-.626.021-1.268.079-1.872-.838,0-1.679.034-2.518.034l-1.7,0c-.835-.007-1.673-.034-2.52-.034a18,18,0,0,1,.084,1.879l.358,0,.053-.918c.018-.28.112-.392.466-.388l1.81,0c.034.345.044.726.047,1.162l.007,4.941Z" transform="translate(-216.08 -69.148)"/><path class="a" d="M318.158,76.014a2.039,2.039,0,0,1-.1.873c-.076.118-.21.16-.487.18L317,77.1l0,.349c.609-.028,1.155-.045,1.73-.039.538,0,1.086.009,1.694.034l0-.352-.563-.037c-.283-.013-.421-.05-.489-.173a2.02,2.02,0,0,1-.109-.87l-.008-4.941c0-.445.016-.815.048-1.166h1.811c.348,0,.444.105.469.39l.048.911h.366a18.272,18.272,0,0,1,.078-1.875c-.846,0-1.686.041-2.528.038l-1.692,0c-.841,0-1.683-.034-2.525-.03a18.243,18.243,0,0,1,.088,1.876l.359,0,.046-.921c.022-.281.114-.384.462-.384l1.816,0c.034.344.045.724.049,1.168v4.932Z" transform="translate(-225.569 -69.134)"/><path class="a" d="M337.385,71.007a8.528,8.528,0,0,1,.159-1.645,5.533,5.533,0,0,0-2.113-.488,2.745,2.745,0,0,0-2.987,2.641c0,1.212.725,1.783,2.559,1.993,1.192.139,2.053.45,2.06,1.564a1.911,1.911,0,0,1-2.092,1.792c-.921,0-1.847-.439-1.9-.928l-.1-.784-.375,0a10.029,10.029,0,0,1-.08,1.785,5.007,5.007,0,0,0,2,.44c1.741,0,3.53-.959,3.527-2.96,0-1.326-1.045-1.73-2.69-1.9-1.459-.162-1.925-.652-1.927-1.442a1.654,1.654,0,0,1,1.721-1.7,2.452,2.452,0,0,1,1.272.28c.439.266.482.379.516.7l.074.664.376,0Z" transform="translate(-235.154 -68.874)"/></g></g><path class="a" d="M63.648,67.5,37.5,67.531c.018,14.211.063,23.615,13.114,30.477C63.653,91.146,63.671,81.729,63.648,67.5Zm-13,29.537-.036.018-.035-.018C38.238,90.717,38.245,80.475,38.251,69.63V68.46l24.538-.108.08,1.09C62.9,80.349,62.923,90.654,50.651,97.037Z" transform="translate(-37.496 -67.5)"/><path class="a" d="M54.127,89.926a.823.823,0,0,0,.46-.67c0-.5-.4-.719-.847-.717-.666,0-1.041.374-1.038.91a.814.814,0,0,0,.487.747.916.916,0,0,0-.574.8.878.878,0,0,0,.988.853,1.078,1.078,0,0,0,1.129-1.083A.861.861,0,0,0,54.127,89.926Zm-.452-1.132a.481.481,0,0,1,.5.531.66.66,0,0,1-.283.519l-.215-.092c-.235-.1-.473-.231-.47-.526A.417.417,0,0,1,53.676,88.794Zm0,2.794a.617.617,0,0,1-.62-.65.773.773,0,0,1,.338-.651l.295.133c.279.119.513.266.508.608A.524.524,0,0,1,53.676,91.588Zm1.391-18.74a2.08,2.08,0,0,1,.83,1.246l-1.628,0A2.115,2.115,0,0,1,55.067,72.848Zm-2.4,2.385a3.721,3.721,0,0,1,4.861,0,2.2,2.2,0,0,1,.285.409l-5.432,0A2.073,2.073,0,0,1,52.668,75.233Zm6.044.659,0,1.607-3.635-1.123-3.563,1.113,0-1.6Zm-3.661,1.015,5.66,1.749-11.3.015Zm-4,14.855c-.215,0-.422.011-.995.02l0-.183.352-.016c.156-.008.28-.065.277-.229V89.189c0-.1.008-.216-.071-.183l-.684.325a.819.819,0,0,1-.071-.343,14.249,14.249,0,0,0,1.461-.5l.06.048c-.011.235-.047.66-.049,1.244l0,1.566c0,.169.126.222.283.23l.3.018v.179C51.475,91.773,51.27,91.762,51.053,91.762Zm.2-5.93c-.485,0-.9.014-1.2.027l-.063-.366.332-.086c.158-.012.242-.036.262-.074a2.136,2.136,0,0,0,.037-.574l0-2.976-.566,1.179L49.2,84.885c-.155.323-.324.686-.445.983l-.362.042-.013-.043a4.248,4.248,0,0,0-.175-.41l-.089-.2L46.444,81.8l0,1.211.064,1.744a1.992,1.992,0,0,0,.045.577c.025.046.059.082.261.1l.274.016.06.346-.373.054c-.183-.007-.366-.014-.546-.014l-.86.023-.066-.345.333-.085c.2-.013.236-.05.253-.087a1.835,1.835,0,0,0,.044-.58v-3.05a2.034,2.034,0,0,0-.047-.573c-.018-.041-.062-.079-.25-.094l-.281-.021-.06-.339.4-.057c.377.012.75.013,1.119,0l.342-.01a6.419,6.419,0,0,1,.384.732l1.4,2.924.507-1.04.767-1.738c.095-.192.181-.4.261-.6l.1-.244.6-.028.321.007.87-.022.062.341-.335.088c-.2.014-.235.054-.251.092a1.889,1.889,0,0,0-.043.573l0,3.051a2.129,2.129,0,0,0,.052.571c.01.026.052.064.25.071l.283.029.055.36A8.262,8.262,0,0,1,51.252,85.832Zm1.434-2.683c.005-1.821,1.539-2.64,3.059-2.645a5.363,5.363,0,0,1,2.082.356l.019.007.064.1c-.062.274-.112.709-.148,1.026l-.02.158-.355.055-.106-.7a2.21,2.21,0,0,0-1.51-.455,1.786,1.786,0,0,0-1.83,2c0,1.086.516,2.355,1.945,2.355a2.6,2.6,0,0,0,.935-.183l-.044-.927c0-.129-.06-.2-.361-.21l-.4-.014-.061-.377.448-.056c.2.006.4.012.592.012l1.294-.017.062.321c-.323.115-.379.137-.377.262v1.223a5.425,5.425,0,0,1-2.239.514h-.016A2.718,2.718,0,0,1,52.686,83.148Zm3.886,8.608c-.2.006-.419.008-.986.022l0-.182.349-.017c.157-.011.281-.067.277-.235V89.186c0-.1.007-.218-.071-.187l-.687.323a.8.8,0,0,1-.066-.345,13.386,13.386,0,0,0,1.463-.492l.053.05c-.008.232-.043.652-.043,1.237v1.574c0,.163.124.217.28.23l.3.014.006.182C57,91.764,56.788,91.756,56.571,91.756Zm2.579,0c-.209,0-.414.015-.989.02V91.59l.351-.018c.152,0,.275-.062.275-.227V89.18c0-.1,0-.215-.076-.18l-.681.319a.808.808,0,0,1-.067-.338c.352-.089,1.041-.328,1.459-.492l.061.043c-.016.237-.051.655-.049,1.245l.007,1.566c-.007.169.115.223.274.231l.3.018,0,.177C59.577,91.765,59.368,91.753,59.151,91.753Zm4.815-7.007a2.163,2.163,0,0,0,.043.582c.018.03.1.052.266.07l.267.018.065.363-.367.058c-.232-.007-.5-.014-.776-.014h-.2c-.222,0-.435.006-.626.012l-.452.009-.06-.363.342-.084c.2-.016.242-.048.258-.075a1.988,1.988,0,0,0,.041-.5l0-1.5a1.249,1.249,0,0,1-.477.051l-1.684.012-.036,1.363a2.243,2.243,0,0,0,.046.578c.018.041.146.058.256.068l.277.023.069.362-.431.058c-.207-.007-.438-.014-.683-.014h-.211c-.416,0-.8.014-1.085.025h-.068l-.011-.068,0-.3.337-.086c.153-.015.24-.041.262-.075a1.622,1.622,0,0,0,.036-.507V81.705a2.054,2.054,0,0,0-.04-.572c-.018-.032-.06-.064-.261-.075l-.279-.025-.06-.365.313-.058c.267.007.59.016.928.017h0c.446,0,.838-.014,1.143-.026l.015.065.018,0,0,.063.063.242-.337.087c-.162.014-.239.036-.261.073a2.114,2.114,0,0,0-.042.574l0,1.178a.912.912,0,0,1,.437-.048l1.211,0c.355,0,.492-.007.606-.018L62.766,81.7a2.074,2.074,0,0,0-.045-.574c-.013-.025-.068-.058-.259-.072l-.28-.021-.064-.366a6.57,6.57,0,0,1,1.063-.045h.181c.364,0,.71-.008.99-.014l.185,0,.072.359-.348.089c-.153.014-.238.038-.257.073a1.966,1.966,0,0,0-.042.578Z" transform="translate(-41.868 -70.501)"/></svg>